<svg width="200" height="200" viewBox="0 0 200 200" fill="none" xmlns="http://www.w3.org/2000/svg">
<g clip-path="url(#clip0_41_765)">
<mask id="mask0_41_765" style="mask-type:alpha" maskUnits="userSpaceOnUse" x="16" y="1" width="169" height="198">
<path d="M100.476 1.84072L184.806 50.9677L184.751 149.133L100.366 198.167L16.0336 149.035L16.0878 50.8738L100.476 1.84072Z" fill="#10B981"/>
</mask>
<g mask="url(#mask0_41_765)">
<circle cx="101.416" cy="98.7972" r="100.031" fill="#1E3A8A"/>
<mask id="mask1_41_765" style="mask-type:luminance" maskUnits="userSpaceOnUse" x="50" y="46" width="109" height="108">
<path d="M50.1753 46.3086H158.064V153.726H50.1753V46.3086Z" fill="white"/>
</mask>
<g mask="url(#mask1_41_765)">
<path d="M156.061 110.581L123.574 144.605C117.73 150.452 109.805 153.737 101.541 153.737H95.4076C79.6358 153.737 66.8473 140.941 66.8473 125.159C66.8473 117.553 64.8459 110.084 61.0457 103.497L51.332 86.6595C49.8452 84.0834 50.1959 80.9261 52.017 78.7517C55.0747 75.0914 60.8996 75.5344 63.3251 79.7317C77.4631 104.236 61.0906 75.8599 77.1592 103.71C66.0887 62.3692 66.1371 63.5816 66.5272 61.3398C66.5272 61.1157 66.8096 59.9957 67.2006 59.2147C70.3892 52.6599 79.8914 53.6884 81.7403 60.5848C82.3169 62.7405 91.3887 96.6235 91.9455 98.702C91.9455 51.4934 91.9123 53.8794 92.0083 53.154C92.549 49.1082 96.0756 46.3616 99.3351 46.3616C103.847 46.1419 107.524 49.7314 107.524 54.1457V100.044C120.546 54.5923 119.466 57.7782 120.428 56.3103C122.454 53.0984 127.037 51.7507 130.689 53.7996C133.588 55.254 135.419 58.9914 134.444 62.6374L123.103 104.99V114.197C123.103 117.285 126.83 118.83 129.011 116.647C139.482 104.518 138.547 105.571 139.047 105.102C144.467 100.077 151.835 99.3378 154.271 100.557C158.123 102.213 159.291 107.35 156.061 110.581Z" fill="#F9CFAC"/>
</g>
<path d="M157.517 103.94L120.384 142.505C115.718 146.611 109.943 149.222 103.811 150.013C84.4842 152.528 70.3095 138.2 70.3095 121.695C70.3095 114.089 68.3081 106.619 64.5079 100.033C51.4038 77.7317 52.1641 79.0391 52.0171 78.7521C53.7217 76.7131 56.4942 75.7823 59.1673 76.5176C60.6674 76.9292 61.5273 77.616 62.5029 78.5907C69.8566 90.9148 77.1808 103.71 77.1592 103.71C79.0154 103.71 80.3658 101.949 79.886 100.155C69.55 61.5582 70.0378 63.9568 70.1077 62.2908C70.1678 59.8527 71.5908 57.2577 73.9132 55.9019C74.8879 55.3289 75.9702 55.0303 76.0581 55.0294C78.732 55.6813 80.9764 57.7383 81.7404 60.5853C82.7572 64.3846 90.8453 94.5948 91.9456 98.7025C91.9456 49.8179 91.8936 53.7893 92.0675 52.7671C92.2773 51.5969 92.7687 50.4958 93.3327 49.7049C94.0026 48.7275 94.9037 48.0156 94.9252 48.0156C100.206 43.9392 107.524 47.804 107.524 54.1462V100.045C120.157 55.9494 119.48 58.2692 119.597 57.9652C121.442 52.7052 128.485 50.8634 132.672 55.3657C132.938 55.6661 133.866 51.6767 119.641 105.639V114.847C119.641 117.496 122.595 120.054 126.008 118.725C128.301 117.831 129.586 115.982 131.344 113.947C139.253 104.786 138.308 105.863 138.857 105.285C141.159 103.057 144.163 101.324 147.605 100.527C149.055 100.195 151.347 99.9013 152.751 100.116C154.655 100.41 156.225 101.562 157.114 103.103C157.36 103.517 157.507 103.918 157.517 103.94Z" fill="#FFE4CC"/>
<path d="M98.869 144.86C97.9132 144.86 97.1384 144.085 97.1384 143.129C97.1384 129.294 107.458 117.485 121.143 115.661C122.093 115.536 122.96 116.201 123.088 117.149C123.213 118.097 122.547 118.968 121.6 119.094C109.628 120.69 100.601 131.023 100.601 143.129C100.601 144.085 99.8249 144.86 98.869 144.86Z" fill="#F9CFAC"/>
<path d="M192.824 106.899L226.316 157.062L176.154 190.553L142.663 140.39L192.824 106.899Z" fill="#10B981"/>
<path d="M23.9839 134.356L66.9832 146.948L34.8359 177.356L23.9839 134.356Z" fill="#F59E0B"/>
<path d="M188.818 36.3585L168.394 46.6194L159.189 67.891L149.149 47.0185L128.334 37.6086L148.76 27.3497L157.966 6.07812L168.006 26.9506L188.818 36.3585Z" fill="#E54F6D"/>
<path d="M23.9839 35.3348L50.9722 12.7246L64.6378 47.1862L37.6509 69.7964L23.9839 35.3348Z" fill="#38BDF8"/>
</g>
</g>
<defs>
<clipPath id="clip0_41_765">
<rect width="200" height="200" fill="white"/>
</clipPath>
</defs>
</svg>
